<svg xmlns="http://www.w3.org/2000/svg" width="500" height="500" viewBox="0 0 500 500">
  <defs>
    <style>
      .cls-1 {
        fill: #3b82f6;
      }

      .cls-2 {
        fill: #93c5fd;
      }

      .cls-2, .cls-3 {
        fill-rule: evenodd;
      }

      .cls-3 {
        fill: #fff;
      }
    </style>
  </defs>
  <rect class="cls-1" x="10" y="10" width="480" height="480" rx="15" ry="15"/>
  <path id="H." class="cls-2" d="M400.1,120.876h-94q-11.2,0-16.8,2.2a11.353,11.353,0,0,0-7.2,7.4,23.668,23.668,0,0,0-.8,4,9.463,9.463,0,0,0,1.2,4.6,28.332,28.332,0,0,0,2.8,4.2q2.4,4,3.8,7a17.491,17.491,0,0,1,1.4,7.4,34.1,34.1,0,0,1-1.6,10l-18.8,65.6H199.3l18.8-65.6q2.793-9.2,6.8-13.6a41.114,41.114,0,0,1,10.4-8,12.244,12.244,0,0,1,2.6-1.8,18.809,18.809,0,0,0,4-3.2,15.844,15.844,0,0,0,3.4-5,15.624,15.624,0,0,0,1.2-5.2q0-4.4-4.6-7.2t-13-2.8h-94q-11.2,0-16.8,2.2a11.353,11.353,0,0,0-7.2,7.4,23.668,23.668,0,0,0-.8,4,9.463,9.463,0,0,0,1.2,4.6,28.332,28.332,0,0,0,2.8,4.2q2.4,4,3.8,7a17.491,17.491,0,0,1,1.4,7.4,34.1,34.1,0,0,1-1.6,10l-49.2,172.4q-2.8,9.6-6.8,14.2a38.864,38.864,0,0,1-10.4,8.2,47.484,47.484,0,0,0-5.6,3.8,15.842,15.842,0,0,0-4.4,5.4,13.288,13.288,0,0,0-1.2,5.2q0,4.8,4.6,7.6t13,2.8h94q11.193,0,16.8-2.2a12.591,12.591,0,0,0,7.6-7.8,24.179,24.179,0,0,0,.8-4,9.381,9.381,0,0,0-1.8-5.4c-1.2-1.731-1.938-2.731-2.2-3a82.92,82.92,0,0,1-4.2-7.2,17.1,17.1,0,0,1-1.4-7.6,33.9,33.9,0,0,1,1.6-10l19.2-66.8h70.8l-19.2,66.8q-2.8,9.6-6.8,14.2a38.875,38.875,0,0,1-10.4,8.2,46.421,46.421,0,0,0-5.6,3.8,15.691,15.691,0,0,0-4.4,5.4,13.288,13.288,0,0,0-1.2,5.2q0,4.8,4.6,7.6t13,2.8h94q11.193,0,16.8-2.2a12.591,12.591,0,0,0,7.6-7.8,24.179,24.179,0,0,0,.8-4,9.381,9.381,0,0,0-1.8-5.4c-1.2-1.731-1.938-2.731-2.2-3a82.92,82.92,0,0,1-4.2-7.2,17.1,17.1,0,0,1-1.4-7.6,33.9,33.9,0,0,1,1.6-10l49.2-172.4q2.793-9.2,6.8-13.6a41.114,41.114,0,0,1,10.4-8,12.244,12.244,0,0,1,2.6-1.8,18.809,18.809,0,0,0,4-3.2,15.844,15.844,0,0,0,3.4-5,15.624,15.624,0,0,0,1.2-5.2q0-4.4-4.6-7.2t-13-2.8h0Zm31.6,185.6a41.407,41.407,0,0,0-23,6.6,45.956,45.956,0,0,0-15.8,17,44.205,44.205,0,0,0-5.6,21.2,37.327,37.327,0,0,0,11.2,26.4,35.911,35.911,0,0,0,26.4,10.8,41.423,41.423,0,0,0,23-6.6,47.621,47.621,0,0,0,16-17,43.1,43.1,0,0,0,5.8-21.2,35.59,35.59,0,0,0-11-26.4q-11.007-10.8-27-10.8h0Z"/>
  <path id="H.-2" data-name="H." class="cls-3" d="M391.1,110.876h-94q-11.2,0-16.8,2.2a11.353,11.353,0,0,0-7.2,7.4,23.668,23.668,0,0,0-.8,4,9.463,9.463,0,0,0,1.2,4.6,28.332,28.332,0,0,0,2.8,4.2q2.4,4,3.8,7a17.491,17.491,0,0,1,1.4,7.4,34.1,34.1,0,0,1-1.6,10l-18.8,65.6H190.3l18.8-65.6q2.793-9.2,6.8-13.6a41.114,41.114,0,0,1,10.4-8,12.244,12.244,0,0,1,2.6-1.8,18.809,18.809,0,0,0,4-3.2,15.844,15.844,0,0,0,3.4-5,15.624,15.624,0,0,0,1.2-5.2q0-4.4-4.6-7.2t-13-2.8h-94q-11.2,0-16.8,2.2a11.353,11.353,0,0,0-7.2,7.4,23.668,23.668,0,0,0-.8,4,9.463,9.463,0,0,0,1.2,4.6,28.332,28.332,0,0,0,2.8,4.2q2.4,4,3.8,7a17.491,17.491,0,0,1,1.4,7.4,34.1,34.1,0,0,1-1.6,10l-49.2,172.4q-2.8,9.6-6.8,14.2a38.864,38.864,0,0,1-10.4,8.2,47.484,47.484,0,0,0-5.6,3.8,15.842,15.842,0,0,0-4.4,5.4,13.288,13.288,0,0,0-1.2,5.2q0,4.8,4.6,7.6t13,2.8h94q11.193,0,16.8-2.2a12.591,12.591,0,0,0,7.6-7.8,24.179,24.179,0,0,0,.8-4,9.381,9.381,0,0,0-1.8-5.4c-1.2-1.731-1.938-2.731-2.2-3a82.92,82.92,0,0,1-4.2-7.2,17.1,17.1,0,0,1-1.4-7.6,33.9,33.9,0,0,1,1.6-10l19.2-66.8h70.8l-19.2,66.8q-2.8,9.6-6.8,14.2a38.875,38.875,0,0,1-10.4,8.2,46.421,46.421,0,0,0-5.6,3.8,15.691,15.691,0,0,0-4.4,5.4,13.288,13.288,0,0,0-1.2,5.2q0,4.8,4.6,7.6t13,2.8h94q11.193,0,16.8-2.2a12.591,12.591,0,0,0,7.6-7.8,24.179,24.179,0,0,0,.8-4,9.381,9.381,0,0,0-1.8-5.4c-1.2-1.731-1.938-2.731-2.2-3a82.92,82.92,0,0,1-4.2-7.2,17.1,17.1,0,0,1-1.4-7.6,33.9,33.9,0,0,1,1.6-10l49.2-172.4q2.793-9.2,6.8-13.6a41.114,41.114,0,0,1,10.4-8,12.244,12.244,0,0,1,2.6-1.8,18.809,18.809,0,0,0,4-3.2,15.844,15.844,0,0,0,3.4-5,15.624,15.624,0,0,0,1.2-5.2q0-4.4-4.6-7.2t-13-2.8h0Zm31.6,185.6a41.407,41.407,0,0,0-23,6.6,45.956,45.956,0,0,0-15.8,17,44.205,44.205,0,0,0-5.6,21.2,37.327,37.327,0,0,0,11.2,26.4,35.911,35.911,0,0,0,26.4,10.8,41.423,41.423,0,0,0,23-6.6,47.621,47.621,0,0,0,16-17,43.1,43.1,0,0,0,5.8-21.2,35.59,35.59,0,0,0-11-26.4q-11.007-10.8-27-10.8h0Z"/>
</svg>
